<svg width="84" height="84" viewBox="0 0 84 84" fill="none" xmlns="http://www.w3.org/2000/svg">
<g filter="url(#filter0_d_17425_206732)">
<rect x="10" y="7" width="64" height="64" rx="32" fill="#1268B3"/>
<g clip-path="url(#clip0_17425_206732)">
<path d="M42 29C47.5228 29 52 33.4771 52 39C52 44.5228 47.5228 49 42 49H34C32.8954 49 32 48.1046 32 47V39C32 33.4771 36.4771 29 42 29ZM42 41H39C38.4477 41 38 41.4477 38 42C38 42.5523 38.4477 43 39 43H42C42.5523 43 43 42.5523 43 42C43 41.4477 42.5523 41 42 41ZM45 37H39C38.4477 37 38 37.4477 38 38C38 38.5128 38.386 38.9355 38.8834 38.9933L39 39H45C45.5523 39 46 38.5523 46 38C46 37.4872 45.614 37.0645 45.1166 37.0067L45 37Z" fill="white"/>
</g>
</g>
<defs>
<filter id="filter0_d_17425_206732" x="0" y="0" width="84" height="84" filterUnits="userSpaceOnUse" color-interpolation-filters="sRGB">
<feFlood flood-opacity="0" result="BackgroundImageFix"/>
<feColorMatrix in="SourceAlpha" type="matrix" values="0 0 0 0 0 0 0 0 0 0 0 0 0 0 0 0 0 0 127 0" result="hardAlpha"/>
<feOffset dy="3"/>
<feGaussianBlur stdDeviation="5"/>
<feComposite in2="hardAlpha" operator="out"/>
<feColorMatrix type="matrix" values="0 0 0 0 0 0 0 0 0 0 0 0 0 0 0 0 0 0 0.08 0"/>
<feBlend mode="normal" in2="BackgroundImageFix" result="effect1_dropShadow_17425_206732"/>
<feBlend mode="normal" in="SourceGraphic" in2="effect1_dropShadow_17425_206732" result="shape"/>
</filter>
<clipPath id="clip0_17425_206732">
<rect width="24" height="24" fill="white" transform="translate(30 27)"/>
</clipPath>
</defs>
</svg>
