<svg width="18" height="16" viewBox="0 0 18 16" fill="none" xmlns="http://www.w3.org/2000/svg">
<path fill-rule="evenodd" clip-rule="evenodd" d="M8.9974 2.16667C5.16678 2.16667 2.33073 4.7276 2.33073 7.58333C2.33073 9.26133 3.28186 10.8101 4.8654 11.8303C5.48107 12.227 5.64788 12.9989 5.67598 13.682C6.30297 13.4238 6.72384 12.7156 7.48556 12.8597C7.97048 12.9513 8.47648 13 8.9974 13C12.828 13 15.6641 10.4391 15.6641 7.58333C15.6641 4.7276 12.828 2.16667 8.9974 2.16667ZM0.664062 7.58333C0.664062 3.53551 4.54374 0.5 8.9974 0.5C13.4511 0.5 17.3307 3.53551 17.3307 7.58333C17.3307 11.6312 13.4511 14.6667 8.9974 14.6667C8.4534 14.6667 7.92073 14.6224 7.40456 14.5377C7.32737 14.5983 7.19382 14.7084 7.02949 14.8242C6.55681 15.1572 5.8717 15.5 4.83073 15.5C4.3705 15.5 3.9974 15.1269 3.9974 14.6667C3.9974 14.2082 4.11683 13.6386 3.91926 13.2032C1.97824 11.9354 0.664062 9.91483 0.664062 7.58333Z" fill="#020A12" fill-opacity="0.6"/>
</svg>
