<svg width="20" height="20" viewBox="0 0 20 20" fill="none" xmlns="http://www.w3.org/2000/svg">
<g opacity="0.38" clip-path="url(#clip0_21290_208472)">
<path fill-rule="evenodd" clip-rule="evenodd" d="M9.9974 4.16667C6.16678 4.16667 3.33073 6.7276 3.33073 9.58333C3.33073 11.2613 4.28186 12.8101 5.8654 13.8303C6.48107 14.227 6.64788 14.9989 6.67598 15.682C7.30297 15.4238 7.72384 14.7156 8.48556 14.8597C8.97048 14.9513 9.47648 15 9.9974 15C13.828 15 16.6641 12.4391 16.6641 9.58333C16.6641 6.7276 13.828 4.16667 9.9974 4.16667ZM1.66406 9.58333C1.66406 5.53551 5.54374 2.5 9.9974 2.5C14.4511 2.5 18.3307 5.53551 18.3307 9.58333C18.3307 13.6312 14.4511 16.6667 9.9974 16.6667C9.4534 16.6667 8.92073 16.6224 8.40456 16.5377C8.32737 16.5983 8.19382 16.7084 8.02949 16.8242C7.55681 17.1572 6.8717 17.5 5.83073 17.5C5.3705 17.5 4.9974 17.1269 4.9974 16.6667C4.9974 16.2082 5.11683 15.6386 4.91926 15.2032C2.97824 13.9354 1.66406 11.9148 1.66406 9.58333Z" fill="#020A12" fill-opacity="0.6"/>
</g>
<defs>
<clipPath id="clip0_21290_208472">
<rect width="20" height="20" fill="white"/>
</clipPath>
</defs>
</svg>
