<svg width="18" height="16" viewBox="0 0 18 16" fill="none" xmlns="http://www.w3.org/2000/svg">
<path fill-rule="evenodd" clip-rule="evenodd" d="M2.33464 0.5C1.41416 0.5 0.667969 1.24619 0.667969 2.16667V13.8333C0.667969 14.7538 1.41416 15.5 2.33464 15.5H15.668C16.5885 15.5 17.3346 14.7538 17.3346 13.8333V2.16667C17.3346 1.24619 16.5885 0.5 15.668 0.5H2.33464ZM6.18879 5.19133C6.26954 4.5062 6.9835 4.09286 7.61805 4.36509C8.03805 4.54527 8.9248 4.94978 10.0481 5.59829C11.1721 6.24721 11.9661 6.81325 12.3318 7.08667C12.8829 7.49875 12.8853 8.32267 12.3319 8.73633C11.9681 9.00833 11.1802 9.56917 10.0472 10.2232C8.91472 10.8771 8.03539 11.2789 7.6178 11.4581C6.98209 11.7309 6.26944 11.3157 6.18884 10.632C6.13527 10.1777 6.04245 9.20425 6.04245 7.9115C6.04245 6.619 6.13522 5.64587 6.18879 5.19133Z" fill="#1268B3"/>
</svg>
