
<svg width="16" height="16" viewBox="0 0 16 16" fill="#FFFFFF" xmlns="http://www.w3.org/2000/svg">
<g clip-path="url(#clip0_17761_41405)">
<path fill-rule="evenodd" clip-rule="evenodd" d="M13.332 2C14.035 2 14.6108 2.54392 14.6617 3.23383L14.6654 3.33333V12.6667C14.6654 13.3696 14.1215 13.9454 13.4315 13.9963L13.332 14H2.66536C1.96246 14 1.38659 13.4561 1.33569 12.7662L1.33203 12.6667V3.33333C1.33203 2.63043 1.87595 2.05456 2.56586 2.00366L2.66536 2H13.332ZM13.332 3.33333H2.66536V12.6667H13.332V3.33333ZM6.8921 5.09203L7.23707 5.24593L7.46275 5.35215L7.7204 5.47819L8.00741 5.62426L8.32115 5.7906L8.65901 5.97743C8.71718 6.01029 8.77625 6.04401 8.83616 6.07859L9.18155 6.28231L9.49767 6.47657L9.7834 6.65898L10.0376 6.82716L10.3574 7.04753L10.6 7.22245C10.6226 7.23906 10.6436 7.25468 10.6631 7.26927C11.104 7.59893 11.1059 8.25807 10.6632 8.58907L10.4483 8.74607L10.1551 8.95103L9.91757 9.11061L9.64745 9.28593L9.34563 9.47478L9.01301 9.67492L8.65698 9.88047L8.31747 10.0684L8.00312 10.2353L7.71631 10.3815L7.45941 10.5074L7.04483 10.6996L6.8919 10.7665C6.38332 10.9847 5.8132 10.6526 5.74872 10.1055L5.70975 9.72921L5.68899 9.48029L5.6605 9.03735L5.64546 8.69899L5.63533 8.32883C5.63413 8.26461 5.63321 8.19916 5.63258 8.13253L5.63162 7.92913C5.63162 7.79128 5.63294 7.65796 5.63533 7.52956L5.64545 7.15949L5.66048 6.82121L5.67893 6.51697L5.69929 6.24905L5.74869 5.75303C5.81328 5.20492 6.38446 4.87425 6.8921 5.09203ZM7.29952 6.75938L7.00876 6.61376L6.98953 6.93898L6.97461 7.30632L6.96612 7.7125C6.96537 7.78325 6.96496 7.85549 6.96496 7.92913L6.96612 8.14568L6.97458 8.55171C6.97658 8.61623 6.97886 8.67914 6.98135 8.74037L6.99868 9.08696C7.00189 9.14117 7.00525 9.19356 7.0087 9.24407L7.29818 9.09873L7.62291 8.92812L7.97954 8.73181C8.04145 8.69692 8.10455 8.66094 8.16877 8.62387L8.53602 8.40678L8.86561 8.20295L9.15625 8.01549C9.20138 7.98578 9.24482 7.95689 9.28656 7.92887L9.01506 7.74986L8.70461 7.55337C8.53992 7.45132 8.36124 7.34398 8.1695 7.23327L7.98102 7.12579L7.62485 6.92995L7.29952 6.75938Z" fill="#FFFFFF"/>
</g>
<defs>
<clipPath id="clip0_17761_41405">
<rect width="16" height="16" fill="#FFFFFF"/>
</clipPath>
</defs>
</svg>
