<svg width="24" height="24" viewBox="0 0 24 24" fill="none" xmlns="http://www.w3.org/2000/svg">
<g clip-path="url(#clip0_17337_207105)">
<path fill-rule="evenodd" clip-rule="evenodd" d="M2.1928 6.57843C1.36183 4.08552 3.91013 1.80468 6.29603 2.90587L20.0983 9.27616C22.422 10.3487 22.422 13.6514 20.0983 14.7239L6.29603 21.0941C3.91013 22.1953 1.36184 19.9145 2.19281 17.4216L3.68377 12.9487C3.88904 12.3329 3.88904 11.6672 3.68377 11.0514L2.1928 6.57843Z" fill="#1268B3"/>
<path d="M3.66409 13L3.68118 12.9487C3.88645 12.3329 3.88645 11.6672 3.68118 11.0514L3.66406 11H13.9974C14.5497 11 14.9974 11.4477 14.9974 12C14.9974 12.5523 14.5497 13 13.9974 13H3.66409Z" fill="white"/>
</g>
<defs>
<clipPath id="clip0_17337_207105">
<rect width="24" height="24" fill="white"/>
</clipPath>
</defs>
</svg>