<svg width="18" height="16" viewBox="0 0 18 16" fill="none" xmlns="http://www.w3.org/2000/svg">
<path fill-rule="evenodd" clip-rule="evenodd" d="M11.4974 1.49445V14.5039C11.4974 15.2495 10.6546 15.6832 10.0479 15.2499L4.56367 11.3325H2.33073C1.41025 11.3325 0.664062 10.5863 0.664062 9.66585V6.33252C0.664062 5.41205 1.41025 4.66586 2.33073 4.66586H4.56367L10.0479 0.748532C10.6546 0.315165 11.4974 0.748866 11.4974 1.49445ZM9.83073 2.95184L5.5324 6.02207C5.24974 6.22398 4.91105 6.33252 4.56367 6.33252H2.33073V9.66585H4.56367C4.91105 9.66585 5.24974 9.77443 5.5324 9.97627L9.83073 13.0465V2.95184ZM14.2098 3.71671C14.5167 3.37377 15.0436 3.34458 15.3865 3.65152C16.5786 4.71845 17.3307 6.27159 17.3307 7.99935C17.3307 9.72702 16.5786 11.2802 15.3865 12.3471C15.0436 12.654 14.5167 12.6248 14.2098 12.2819C13.9028 11.939 13.9321 11.4122 14.275 11.1052C15.1287 10.3411 15.6641 9.23327 15.6641 7.99935C15.6641 6.76535 15.1287 5.65755 14.275 4.89342C13.9321 4.58647 13.9028 4.05964 14.2098 3.71671ZM13.7198 5.51492C14.4005 6.12409 14.8307 7.01202 14.8307 7.99927C14.8307 8.9866 14.4005 9.87452 13.7198 10.4837C13.3769 10.7906 12.8501 10.7614 12.5431 10.4185C12.2598 10.1019 12.2629 9.62865 12.5348 9.31631L12.6083 9.24177C12.9506 8.93543 13.1641 8.49285 13.1641 7.99927C13.1641 7.55512 12.9912 7.15221 12.7071 6.85275L12.6083 6.75685C12.2654 6.44985 12.2361 5.92305 12.5431 5.58011C12.8501 5.23717 13.3769 5.20798 13.7198 5.51492Z" fill="#020A12" fill-opacity="0.6"/>
</svg>
