<svg width="18" height="16" viewBox="0 0 18 16" fill="none" xmlns="http://www.w3.org/2000/svg">
<path fill-rule="evenodd" clip-rule="evenodd" d="M2.82743 4.66586L4.4941 6.33252H2.33073V9.66586H4.56367C4.91105 9.66586 5.24974 9.77436 5.5324 9.97627L9.83073 13.0465V11.6692L11.4974 13.3359V14.5039C11.4974 15.2495 10.6546 15.6832 10.0479 15.2499L4.56367 11.3325H2.33073C1.41025 11.3325 0.664062 10.5864 0.664062 9.66586V6.33252C0.664062 5.41205 1.41025 4.66586 2.33073 4.66586H2.82743ZM10.0479 0.748532C10.6283 0.334007 11.4246 0.712791 11.4927 1.39902L11.4974 1.49446V9.32061L12.4251 10.2484C12.2683 9.94843 12.3082 9.57647 12.5348 9.31623L12.6083 9.24169C12.9506 8.93527 13.1641 8.49269 13.1641 7.99919C13.1641 7.55497 12.9911 7.15212 12.707 6.85261L12.6083 6.75669C12.2654 6.44977 12.2361 5.92293 12.5431 5.57999C12.8501 5.23706 13.3769 5.20787 13.7198 5.51481C14.4004 6.12397 14.8307 7.01186 14.8307 7.99919C14.8307 8.98644 14.4004 9.87436 13.7198 10.4835C13.4834 10.6952 13.1595 10.747 12.8805 10.6464L12.7783 10.6015L14.0034 11.8266C13.9719 11.5655 14.0641 11.2938 14.275 11.1051C15.1287 10.3409 15.6641 9.23311 15.6641 7.99919C15.6641 6.76527 15.1287 5.65743 14.275 4.8933C13.9321 4.58636 13.9028 4.05953 14.2098 3.71659C14.5167 3.37365 15.0436 3.34447 15.3865 3.65141C16.5786 4.71834 17.3307 6.27148 17.3307 7.99919C17.3307 9.72694 16.5786 11.28 15.3865 12.347C15.2269 12.4898 15.0275 12.5599 14.829 12.5594L14.7301 12.5533L16.0686 13.8918C16.394 14.2172 16.394 14.7449 16.0686 15.0703C15.7682 15.3707 15.2955 15.3938 14.9686 15.1396L14.8901 15.0703L1.92641 2.10664C1.60097 1.7812 1.60097 1.25357 1.92641 0.928132C2.22681 0.627724 2.69951 0.604616 3.02642 0.858807L3.10492 0.928132L5.89308 3.71628L10.0479 0.748532ZM9.83073 2.95185L7.08785 4.91105L9.83073 7.65394V2.95185Z" fill="#D85C57"/>
</svg>